<svg width="50" height="50" viewBox="0 0 50 50" fill="none" xmlns="http://www.w3.org/2000/svg">
<path d="M19.1667 18.8166V29.5166C19.1667 30.2833 19.5167 30.8666 20.2167 31.2666C20.9167 31.6666 21.6 31.6333 22.2667 31.1666L30.5667 25.8666C31.2 25.4666 31.5167 24.9 31.5167 24.1666C31.5167 23.4333 31.2 22.8666 30.5667 22.4666L22.2667 17.1666C21.6 16.7 20.9167 16.6666 20.2167 17.0666C19.5167 17.4666 19.1667 18.05 19.1667 18.8166ZM24.1667 44.1666C21.4 44.1666 18.8 43.6413 16.3667 42.5906C13.9334 41.5413 11.8167 40.1166 10.0167 38.3166C8.21669 36.5166 6.79202 34.4 5.74269 31.9666C4.69202 29.5333 4.16669 26.9333 4.16669 24.1666C4.16669 21.4 4.69202 18.8 5.74269 16.3666C6.79202 13.9333 8.21669 11.8166 10.0167 10.0166C11.8167 8.21663 13.9334 6.79129 16.3667 5.74063C18.8 4.69129 21.4 4.16663 24.1667 4.16663C26.9334 4.16663 29.5334 4.69129 31.9667 5.74063C34.4 6.79129 36.5167 8.21663 38.3167 10.0166C40.1167 11.8166 41.5414 13.9333 42.5907 16.3666C43.6414 18.8 44.1667 21.4 44.1667 24.1666C44.1667 26.9333 43.6414 29.5333 42.5907 31.9666C41.5414 34.4 40.1167 36.5166 38.3167 38.3166C36.5167 40.1166 34.4 41.5413 31.9667 42.5906C29.5334 43.6413 26.9334 44.1666 24.1667 44.1666Z" fill="#EE8D8D"/>
</svg>
