<svg width="50" height="50" viewBox="0 0 50 50" fill="none" xmlns="http://www.w3.org/2000/svg">
<path d="M24.1666 44.1666C21.4 44.1666 18.8 43.6413 16.3666 42.5906C13.9333 41.5413 11.8166 40.1166 10.0166 38.3166C8.21663 36.5166 6.79196 34.4 5.74263 31.9666C4.69196 29.5333 4.16663 26.9333 4.16663 24.1666C4.16663 21.4 4.69196 18.8 5.74263 16.3666C6.79196 13.9333 8.21663 11.8166 10.0166 10.0166C11.8166 8.21663 13.9333 6.79129 16.3666 5.74063C18.8 4.69129 21.4 4.16663 24.1666 4.16663C26.9333 4.16663 29.5333 4.69129 31.9666 5.74063C34.4 6.79129 36.5166 8.21663 38.3166 10.0166C40.1166 11.8166 41.5413 13.9333 42.5906 16.3666C43.6413 18.8 44.1666 21.4 44.1666 24.1666C44.1666 26.9333 43.6413 29.5333 42.5906 31.9666C41.5413 34.4 40.1166 36.5166 38.3166 38.3166C36.5166 40.1166 34.4 41.5413 31.9666 42.5906C29.5333 43.6413 26.9333 44.1666 24.1666 44.1666ZM18.1666 32.1666H30.1666C30.7333 32.1666 31.2086 31.9746 31.5926 31.5906C31.9753 31.208 32.1666 30.7333 32.1666 30.1666V18.1666C32.1666 17.6 31.9753 17.1246 31.5926 16.7406C31.2086 16.358 30.7333 16.1666 30.1666 16.1666H18.1666C17.6 16.1666 17.1253 16.358 16.7426 16.7406C16.3586 17.1246 16.1666 17.6 16.1666 18.1666V30.1666C16.1666 30.7333 16.3586 31.208 16.7426 31.5906C17.1253 31.9746 17.6 32.1666 18.1666 32.1666Z" fill="#EE8D8D"/>
</svg>
